# xmcd CD database file
#
# Track frame offsets:
#	187
#	57970
#	113192
#	160825
#	210242
#	213845
#	238862
#	267700
#
# Disc length: 4083 seconds
#
# Revision: 19
# Processed by: cddbd v1.5.2PL0 Copyright (c) Steve Scherf et al.
# Submitted via: CDex 1.70beta2
#
DISCID=700ff108
DTITLE=Charlie Parker - Bird: The Complete Charlie Parker On Verve - Disc 3
DYEAR=1993
DGENRE=Jazz
TTITLE0=The Opener
TTITLE1=Lester Leaps In
TTITLE2=Embraceable You
TTITLE3=The Closer
TTITLE4=Ow - Introduction of Ella Fitzgerald
TTITLE5=Flying Home
TTITLE6=How High The Moon (previously unreleased)
TTITLE7=Perdido (previously unreleased)
EXTD=Verve YEAR: 1993
EXTT0=
EXTT1=
EXTT2=
EXTT3=
EXTT4=
EXTT5=
EXTT6=
EXTT7=
PLAYORDER=
